<svg width="232" height="207" viewBox="0 0 232 207" fill="none" xmlns="http://www.w3.org/2000/svg">
<path d="M135.5 137.667L155 103.5L135.5 69.3333H96.5L77 103.5L96.5 137.667H135.5Z" fill="#D50000"/>
<path d="M174.5 69.3333L189.756 42.6019C192.386 37.9939 192.386 32.3394 189.756 27.7314L178.817 8.56476C176.148 3.88728 171.176 1 165.79 1H144.21C138.824 1 133.852 3.88729 131.183 8.56476L116 35.1667L135.5 69.3333H174.5Z" fill="#D50000"/>
<path d="M204.79 137.667C210.176 137.667 215.148 134.779 217.817 130.102L228.756 110.935C231.386 106.327 231.386 100.673 228.756 96.0648L217.817 76.8981C215.148 72.2206 210.176 69.3333 204.79 69.3333H174.5L155 103.5L174.5 137.667H204.79Z" fill="#D50000"/>
<path d="M165.79 206C171.176 206 176.148 203.113 178.817 198.435L189.756 179.269C192.386 174.661 192.386 169.006 189.756 164.398L174.5 137.667H135.5L116 171.833L131.183 198.435C133.852 203.113 138.824 206 144.21 206H165.79Z" fill="#D50000"/>
<path d="M87.7899 206C93.1756 206 98.1479 203.113 100.817 198.435L116 171.833L96.5 137.667H57.5L42.2435 164.398C39.6136 169.006 39.6136 174.661 42.2435 179.269L53.1826 198.435C55.8521 203.113 60.8244 206 66.2101 206H87.7899Z" fill="#D50000"/>
<path d="M57.5 137.667L77 103.5L57.5 69.3333H27.2101C21.8244 69.3333 16.8521 72.2206 14.1826 76.8981L3.24352 96.0648C0.613598 100.673 0.613601 106.327 3.24353 110.935L14.1826 130.102C16.8521 134.779 21.8244 137.667 27.2101 137.667H57.5Z" fill="#D50000"/>
<path d="M96.5 69.3333L116 35.1667L100.817 8.56476C98.1479 3.88728 93.1756 1 87.7899 1H66.2101C60.8244 1 55.8521 3.88729 53.1826 8.56476L42.2435 27.7314C39.6136 32.3394 39.6136 37.9939 42.2435 42.6019L57.5 69.3333H96.5Z" fill="#D50000"/>
<path d="M135.5 137.667L155 103.5M135.5 137.667H96.5M135.5 137.667H174.5M135.5 137.667L116 171.833M155 103.5L135.5 69.3333M155 103.5L174.5 69.3333M155 103.5L174.5 137.667M135.5 69.3333H96.5M135.5 69.3333L116 35.1667M135.5 69.3333H174.5M96.5 69.3333L77 103.5M96.5 69.3333L116 35.1667M96.5 69.3333H57.5M77 103.5L96.5 137.667M77 103.5L57.5 137.667M77 103.5L57.5 69.3333M96.5 137.667L116 171.833M96.5 137.667H57.5M174.5 69.3333L189.756 42.6019C192.386 37.9939 192.386 32.3394 189.756 27.7314L178.817 8.56476C176.148 3.88728 171.176 1 165.79 1H144.21C138.824 1 133.852 3.88729 131.183 8.56476L116 35.1667M174.5 69.3333H204.79C210.176 69.3333 215.148 72.2206 217.817 76.8981L228.756 96.0648C231.386 100.673 231.386 106.327 228.756 110.935L217.817 130.102C215.148 134.779 210.176 137.667 204.79 137.667H174.5M116 35.1667L100.817 8.56476C98.1479 3.88728 93.1756 1 87.7899 1H66.2101C60.8244 1 55.8521 3.88729 53.1826 8.56476L42.2435 27.7314C39.6136 32.3394 39.6136 37.9939 42.2435 42.6019L57.5 69.3333M174.5 137.667L189.756 164.398C192.386 169.006 192.386 174.661 189.756 179.269L178.817 198.435C176.148 203.113 171.176 206 165.79 206H144.21C138.824 206 133.852 203.113 131.183 198.435L116 171.833M116 171.833L100.817 198.435C98.1479 203.113 93.1756 206 87.7899 206H66.2101C60.8244 206 55.8521 203.113 53.1826 198.435L42.2435 179.269C39.6136 174.661 39.6136 169.006 42.2435 164.398L57.5 137.667M57.5 137.667H27.2101C21.8244 137.667 16.8521 134.779 14.1826 130.102L3.24353 110.935C0.613601 106.327 0.613598 100.673 3.24352 96.0648L14.1826 76.8981C16.8521 72.2206 21.8244 69.3333 27.2101 69.3333H57.5" stroke="black" stroke-opacity="0.2"/>
</svg>
